<svg width="22" height="22" viewBox="0 0 22 22" fill="none" xmlns="http://www.w3.org/2000/svg">
<g id="&#240;&#159;&#166;&#134; icon &#34;github&#34;">
<path id="Vector" d="M11 0.681973C5.15453 0.681973 0.419983 5.41917 0.419983 11.262C0.419983 15.9375 3.45115 19.9023 7.65406 21.2997C8.18306 21.3994 8.37702 21.0723 8.37702 20.791C8.37702 20.5397 8.36821 19.8741 8.3638 18.9924C5.4208 19.6308 4.8001 17.5729 4.8001 17.5729C4.31871 16.3518 3.62308 16.0256 3.62308 16.0256C2.66471 15.3697 3.69714 15.3829 3.69714 15.3829C4.75955 15.4569 5.31764 16.4726 5.31764 16.4726C6.26102 18.0905 7.79424 17.6232 8.39907 17.3525C8.49429 16.6684 8.76672 16.202 9.06913 15.9375C6.71949 15.6729 4.24994 14.7631 4.24994 10.7092C4.24994 9.55418 4.65992 8.6108 5.3388 7.8702C5.21978 7.60306 4.8627 6.52742 5.43138 5.07003C5.43138 5.07003 6.31745 4.78613 8.34088 6.15448C9.18728 5.91907 10.0866 5.80269 10.9859 5.7974C11.8852 5.80269 12.7845 5.91907 13.6309 6.15448C15.6411 4.78613 16.5272 5.07003 16.5272 5.07003C17.0958 6.52742 16.7388 7.60306 16.633 7.8702C17.3074 8.6108 17.7174 9.55418 17.7174 10.7092C17.7174 14.7737 15.2443 15.6685 12.8903 15.9286C13.2606 16.246 13.6044 16.8949 13.6044 17.8859C13.6044 19.3019 13.5912 20.4392 13.5912 20.7831C13.5912 21.0608 13.7764 21.3914 14.3186 21.2856C18.5515 19.8979 21.58 15.9304 21.58 11.262C21.58 5.41917 16.8428 0.681973 11 0.681973Z" fill="white"/>
</g>
</svg>
