<svg width="20" height="10" viewBox="0 0 20 10" fill="none" xmlns="http://www.w3.org/2000/svg">
<path fill-rule="evenodd" clip-rule="evenodd" d="M19.5292 0.694444C19.6775 0.302778 19.5292 0.0180554 18.8729 0.0180554H16.6909C16.1404 0.0180554 15.8863 0.267361 15.7379 0.534028C15.7379 0.534028 14.6154 2.81181 13.0479 4.28854C12.5396 4.71562 12.3067 4.85799 12.0313 4.85799C11.8829 4.85799 11.6921 4.71562 11.6921 4.32431V0.676042C11.6921 0.213542 11.5229 0 11.0567 0H7.62501C7.28584 0 7.07418 0.213542 7.07418 0.427083C7.07418 0.871875 7.85793 0.978819 7.94251 2.22431V4.93056C7.94251 5.51771 7.81751 5.625 7.54001 5.625C6.79876 5.625 4.99834 3.32951 3.91834 0.713889C3.70834 0.195833 3.495 0 2.94417 0H0.741251C0.105834 0 0 0.248958 0 0.515972C0 0.996528 0.741251 3.41632 3.4525 6.6191C5.25292 8.8066 7.81584 9.98229 10.1246 9.98229C11.5229 9.98229 11.6921 9.71528 11.6921 9.27049V7.61562C11.6921 7.08194 11.8192 6.99305 12.2642 6.99305C12.5817 6.99305 13.1538 7.13507 14.4459 8.18507C15.9284 9.43056 16.1825 10 17.0088 10H19.1904C19.8259 10 20.1225 9.73299 19.9529 9.21701C19.7625 8.70104 19.0421 7.95382 18.11 7.06424C17.6017 6.56632 16.8392 6.01458 16.6063 5.74757C16.2888 5.39167 16.3734 5.24931 16.6063 4.92917C16.585 4.92917 19.2542 1.76181 19.5292 0.693056" fill="white"/>
</svg>
