<svg width="20" height="14" viewBox="0 0 20 14" fill="none" xmlns="http://www.w3.org/2000/svg">
<path d="M19.5825 2.16946C19.4665 1.75411 19.2454 1.37568 18.9405 1.07076C18.6356 0.765838 18.2572 0.544732 17.8418 0.428814C16.2829 0.0111585 10.0089 0.0111584 10.0089 0.0111584C10.0089 0.0111584 3.75074 0.0028221 2.17599 0.428814C1.76064 0.544732 1.38221 0.765838 1.07729 1.07076C0.772366 1.37568 0.55126 1.75411 0.435342 2.16946C0.139832 3.76548 -0.00585506 5.38562 0.000180061 7.00876C-0.00471415 8.62577 0.140969 10.2397 0.435342 11.8297C0.55126 12.2451 0.772366 12.6235 1.07729 12.9284C1.38221 13.2333 1.76064 13.4544 2.17599 13.5704C3.73323 13.9889 10.0089 13.9889 10.0089 13.9889C10.0089 13.9889 16.2662 13.9889 17.8418 13.5704C18.2572 13.4544 18.6356 13.2333 18.9405 12.9284C19.2454 12.6235 19.4665 12.2451 19.5825 11.8297C19.8707 10.2391 20.0102 8.6252 19.9993 7.00876C20.0114 5.3862 19.8718 3.76606 19.5825 2.16946ZM8.00649 10.0024V4.00598L13.2284 7.00876L8.00649 10.0024Z" fill="white"/>
</svg>
